<svg version="1.1" xmlns="http://www.w3.org/2000/svg" xmlns:xlink="http://www.w3.org/1999/xlink" width="1156" height="696"><defs><clipPath id="HVyuztQbCoQJ"><path fill="none" stroke="none" d=" M 0 0 L 1156 0 L 1156 696 L 0 696 L 0 0 Z"/></clipPath></defs><g transform="scale(1,1)" clip-path="url(#HVyuztQbCoQJ)"><g><rect fill="rgb(255,255,255)" stroke="none" x="0" y="0" width="1156" height="696" fill-opacity="1"/><path fill="none" stroke="rgb(97,97,97)" paint-order="fill stroke markers" d=" M 727.9417807368632 308.58510457056434 C 727.9417807368632 403.53742712862567 650.9677146210521 480.51149324443674 556.0153920629907 480.51149324443674 C 461.06306950492933 480.51149324443674 384.08900338911826 403.53742712862567 384.08900338911826 308.58510457056434 C 384.08900338911826 213.632782012503 461.06306950492933 136.65871589669194 556.0153920629907 136.65871589669194 C 650.9677146210521 136.65871589669194 727.9417807368632 213.632782012503 727.9417807368632 308.58510457056434 Z" stroke-opacity="0.8" stroke-linejoin="round" stroke-miterlimit="10" stroke-width="2.5" stroke-dasharray="6.5,4"/><path fill="none" stroke="rgb(97,97,97)" paint-order="fill stroke markers" d=" M 732.8172036855151 334.50899274754744 C 732.8172036855151 468.87220574621614 623.8942983551254 577.7951110766057 489.5310853564567 577.7951110766057 C 355.16787235778787 577.7951110766057 246.2449670273983 468.87220574621614 246.2449670273983 334.50899274754744 C 246.2449670273983 200.14577974887868 355.16787235778787 91.22287441848914 489.5310853564567 91.22287441848914 C 623.8942983551254 91.22287441848914 732.8172036855151 200.14577974887868 732.8172036855151 334.50899274754744 Z" stroke-opacity="0.8" stroke-linecap="round" stroke-linejoin="round" stroke-miterlimit="10" stroke-width="2.5"/><path fill="none" stroke="rgb(97,97,97)" paint-order="fill stroke markers" d=" M 556.0153920629907 308.58510457056434 L 555.5940051211547 480.51097683964633" stroke-opacity="0.8" stroke-linecap="round" stroke-linejoin="round" stroke-miterlimit="10" stroke-width="2.5"/><path fill="none" stroke="rgb(97,97,97)" paint-order="fill stroke markers" d=" M 348.6700000000001 136.14999999999992 L 294.4463636363637 479.8709090909091" stroke-opacity="0.8" stroke-linecap="round" stroke-linejoin="round" stroke-miterlimit="10" stroke-width="2.5"/><path fill="none" stroke="rgb(97,97,97)" paint-order="fill stroke markers" d=" M 294.4463636363637 479.8709090909091 L 683.9009090909093 480.8254545454546" stroke-opacity="0.8" stroke-linecap="round" stroke-linejoin="round" stroke-miterlimit="10" stroke-width="2.5"/><path fill="none" stroke="rgb(97,97,97)" paint-order="fill stroke markers" d=" M 683.9009090909093 480.8254545454546 L 348.6700000000001 136.14999999999992" stroke-opacity="0.8" stroke-linecap="round" stroke-linejoin="round" stroke-miterlimit="10" stroke-width="2.5"/><path fill="none" stroke="rgb(97,97,97)" paint-order="fill stroke markers" d=" M 321.5581818181819 308.01045454545454 L 556.0153920629907 308.58510457056434" stroke-opacity="0.8" stroke-linecap="round" stroke-linejoin="round" stroke-miterlimit="10" stroke-width="2.5"/><path fill="rgb(21,101,192)" stroke="none" paint-order="stroke fill markers" d=" M 353.6700000000001 136.14999999999992 C 353.6700000000001 138.9114237491539 351.431423749154 141.14999999999992 348.6700000000001 141.14999999999992 C 345.9085762508461 141.14999999999992 343.6700000000001 138.9114237491539 343.6700000000001 136.14999999999992 C 343.6700000000001 133.38857625084594 345.9085762508461 131.14999999999992 348.6700000000001 131.14999999999992 C 351.431423749154 131.14999999999992 353.6700000000001 133.38857625084594 353.6700000000001 136.14999999999992 Z" fill-opacity="1"/><path fill="none" stroke="rgb(0,0,0)" paint-order="fill stroke markers" d=" M 353.6700000000001 136.14999999999992 C 353.6700000000001 138.9114237491539 351.431423749154 141.14999999999992 348.6700000000001 141.14999999999992 C 345.9085762508461 141.14999999999992 343.6700000000001 138.9114237491539 343.6700000000001 136.14999999999992 C 343.6700000000001 133.38857625084594 345.9085762508461 131.14999999999992 348.6700000000001 131.14999999999992 C 351.431423749154 131.14999999999992 353.6700000000001 133.38857625084594 353.6700000000001 136.14999999999992 Z" stroke-opacity="1" stroke-linecap="round" stroke-linejoin="round" stroke-miterlimit="10"/><text fill="rgb(21,101,192)" stroke="none" font-family="geogebra-sans-serif, sans-serif" font-size="16px" font-style="normal" font-weight="normal" text-decoration="normal" x="338" y="112" text-anchor="start" dominant-baseline="alphabetic" fill-opacity="1">A</text><text fill="none" stroke="rgb(255,255,255)" font-family="geogebra-sans-serif, sans-serif" font-size="16px" font-style="normal" font-weight="normal" text-decoration="normal" x="338" y="112" text-anchor="start" dominant-baseline="alphabetic" stroke-opacity="1" stroke-linejoin="bevel" stroke-miterlimit="10" stroke-width="3">A</text><text fill="rgb(21,101,192)" stroke="none" font-family="geogebra-sans-serif, sans-serif" font-size="16px" font-style="normal" font-weight="normal" text-decoration="normal" x="338" y="112" text-anchor="start" dominant-baseline="alphabetic" fill-opacity="1">A</text><path fill="rgb(21,101,192)" stroke="none" paint-order="stroke fill markers" d=" M 299.4463636363637 479.8709090909091 C 299.4463636363637 482.63233284006304 297.20778738551763 484.8709090909091 294.4463636363637 484.8709090909091 C 291.68493988720974 484.8709090909091 289.4463636363637 482.63233284006304 289.4463636363637 479.8709090909091 C 289.4463636363637 477.10948534175515 291.68493988720974 474.8709090909091 294.4463636363637 474.8709090909091 C 297.20778738551763 474.8709090909091 299.4463636363637 477.10948534175515 299.4463636363637 479.8709090909091 Z" fill-opacity="1"/><path fill="none" stroke="rgb(0,0,0)" paint-order="fill stroke markers" d=" M 299.4463636363637 479.8709090909091 C 299.4463636363637 482.63233284006304 297.20778738551763 484.8709090909091 294.4463636363637 484.8709090909091 C 291.68493988720974 484.8709090909091 289.4463636363637 482.63233284006304 289.4463636363637 479.8709090909091 C 289.4463636363637 477.10948534175515 291.68493988720974 474.8709090909091 294.4463636363637 474.8709090909091 C 297.20778738551763 474.8709090909091 299.4463636363637 477.10948534175515 299.4463636363637 479.8709090909091 Z" stroke-opacity="1" stroke-linecap="round" stroke-linejoin="round" stroke-miterlimit="10"/><text fill="rgb(21,101,192)" stroke="none" font-family="geogebra-sans-serif, sans-serif" font-size="16px" font-style="normal" font-weight="normal" text-decoration="normal" x="271" y="505" text-anchor="start" dominant-baseline="alphabetic" fill-opacity="1">B</text><text fill="none" stroke="rgb(255,255,255)" font-family="geogebra-sans-serif, sans-serif" font-size="16px" font-style="normal" font-weight="normal" text-decoration="normal" x="271" y="505" text-anchor="start" dominant-baseline="alphabetic" stroke-opacity="1" stroke-linejoin="bevel" stroke-miterlimit="10" stroke-width="3">B</text><text fill="rgb(21,101,192)" stroke="none" font-family="geogebra-sans-serif, sans-serif" font-size="16px" font-style="normal" font-weight="normal" text-decoration="normal" x="271" y="505" text-anchor="start" dominant-baseline="alphabetic" fill-opacity="1">B</text><path fill="rgb(21,101,192)" stroke="none" paint-order="stroke fill markers" d=" M 688.9009090909093 480.8254545454546 C 688.9009090909093 483.58687829460854 686.6623328400633 485.8254545454546 683.9009090909093 485.8254545454546 C 681.1394853417553 485.8254545454546 678.9009090909093 483.58687829460854 678.9009090909093 480.8254545454546 C 678.9009090909093 478.06403079630064 681.1394853417553 475.8254545454546 683.9009090909093 475.8254545454546 C 686.6623328400633 475.8254545454546 688.9009090909093 478.06403079630064 688.9009090909093 480.8254545454546 Z" fill-opacity="1"/><path fill="none" stroke="rgb(0,0,0)" paint-order="fill stroke markers" d=" M 688.9009090909093 480.8254545454546 C 688.9009090909093 483.58687829460854 686.6623328400633 485.8254545454546 683.9009090909093 485.8254545454546 C 681.1394853417553 485.8254545454546 678.9009090909093 483.58687829460854 678.9009090909093 480.8254545454546 C 678.9009090909093 478.06403079630064 681.1394853417553 475.8254545454546 683.9009090909093 475.8254545454546 C 686.6623328400633 475.8254545454546 688.9009090909093 478.06403079630064 688.9009090909093 480.8254545454546 Z" stroke-opacity="1" stroke-linecap="round" stroke-linejoin="round" stroke-miterlimit="10"/><text fill="rgb(21,101,192)" stroke="none" font-family="geogebra-sans-serif, sans-serif" font-size="16px" font-style="normal" font-weight="normal" text-decoration="normal" x="700" y="498" text-anchor="start" dominant-baseline="alphabetic" fill-opacity="1">C</text><text fill="none" stroke="rgb(255,255,255)" font-family="geogebra-sans-serif, sans-serif" font-size="16px" font-style="normal" font-weight="normal" text-decoration="normal" x="700" y="498" text-anchor="start" dominant-baseline="alphabetic" stroke-opacity="1" stroke-linejoin="bevel" stroke-miterlimit="10" stroke-width="3">C</text><text fill="rgb(21,101,192)" stroke="none" font-family="geogebra-sans-serif, sans-serif" font-size="16px" font-style="normal" font-weight="normal" text-decoration="normal" x="700" y="498" text-anchor="start" dominant-baseline="alphabetic" fill-opacity="1">C</text><path fill="rgb(97,97,97)" stroke="none" paint-order="stroke fill markers" d=" M 559.5940051211547 480.51097683964633 C 559.5940051211547 482.7201158389695 557.8031441204779 484.51097683964633 555.5940051211547 484.51097683964633 C 553.3848661218316 484.51097683964633 551.5940051211547 482.7201158389695 551.5940051211547 480.51097683964633 C 551.5940051211547 478.3018378403232 553.3848661218316 476.51097683964633 555.5940051211547 476.51097683964633 C 557.8031441204779 476.51097683964633 559.5940051211547 478.3018378403232 559.5940051211547 480.51097683964633 Z" fill-opacity="1"/><path fill="none" stroke="rgb(0,0,0)" paint-order="fill stroke markers" d=" M 559.5940051211547 480.51097683964633 C 559.5940051211547 482.7201158389695 557.8031441204779 484.51097683964633 555.5940051211547 484.51097683964633 C 553.3848661218316 484.51097683964633 551.5940051211547 482.7201158389695 551.5940051211547 480.51097683964633 C 551.5940051211547 478.3018378403232 553.3848661218316 476.51097683964633 555.5940051211547 476.51097683964633 C 557.8031441204779 476.51097683964633 559.5940051211547 478.3018378403232 559.5940051211547 480.51097683964633 Z" stroke-opacity="1" stroke-linecap="round" stroke-linejoin="round" stroke-miterlimit="10"/><text fill="rgb(97,97,97)" stroke="none" font-family="geogebra-sans-serif, sans-serif" font-size="16px" font-style="normal" font-weight="normal" text-decoration="normal" x="549" y="504" text-anchor="start" dominant-baseline="alphabetic" fill-opacity="1">E</text><text fill="none" stroke="rgb(255,255,255)" font-family="geogebra-sans-serif, sans-serif" font-size="16px" font-style="normal" font-weight="normal" text-decoration="normal" x="549" y="504" text-anchor="start" dominant-baseline="alphabetic" stroke-opacity="1" stroke-linejoin="bevel" stroke-miterlimit="10" stroke-width="3">E</text><text fill="rgb(97,97,97)" stroke="none" font-family="geogebra-sans-serif, sans-serif" font-size="16px" font-style="normal" font-weight="normal" text-decoration="normal" x="549" y="504" text-anchor="start" dominant-baseline="alphabetic" fill-opacity="1">E</text><path fill="rgb(97,97,97)" stroke="none" paint-order="stroke fill markers" d=" M 325.5581818181819 308.01045454545454 C 325.5581818181819 310.2195935447777 323.76732081750504 312.01045454545454 321.5581818181819 312.01045454545454 C 319.3490428188587 312.01045454545454 317.5581818181819 310.2195935447777 317.5581818181819 308.01045454545454 C 317.5581818181819 305.8013155461314 319.3490428188587 304.01045454545454 321.5581818181819 304.01045454545454 C 323.76732081750504 304.01045454545454 325.5581818181819 305.8013155461314 325.5581818181819 308.01045454545454 Z" fill-opacity="1"/><path fill="none" stroke="rgb(0,0,0)" paint-order="fill stroke markers" d=" M 325.5581818181819 308.01045454545454 C 325.5581818181819 310.2195935447777 323.76732081750504 312.01045454545454 321.5581818181819 312.01045454545454 C 319.3490428188587 312.01045454545454 317.5581818181819 310.2195935447777 317.5581818181819 308.01045454545454 C 317.5581818181819 305.8013155461314 319.3490428188587 304.01045454545454 321.5581818181819 304.01045454545454 C 323.76732081750504 304.01045454545454 325.5581818181819 305.8013155461314 325.5581818181819 308.01045454545454 Z" stroke-opacity="1" stroke-linecap="round" stroke-linejoin="round" stroke-miterlimit="10"/><path fill="rgb(97,97,97)" stroke="none" paint-order="stroke fill markers" d=" M 520.2854545454546 308.4877272727272 C 520.2854545454546 310.6968662720504 518.4945935447778 312.4877272727272 516.2854545454546 312.4877272727272 C 514.0763155461315 312.4877272727272 512.2854545454546 310.6968662720504 512.2854545454546 308.4877272727272 C 512.2854545454546 306.27858827340407 514.0763155461315 304.4877272727272 516.2854545454546 304.4877272727272 C 518.4945935447778 304.4877272727272 520.2854545454546 306.27858827340407 520.2854545454546 308.4877272727272 Z" fill-opacity="1"/><path fill="none" stroke="rgb(0,0,0)" paint-order="fill stroke markers" d=" M 520.2854545454546 308.4877272727272 C 520.2854545454546 310.6968662720504 518.4945935447778 312.4877272727272 516.2854545454546 312.4877272727272 C 514.0763155461315 312.4877272727272 512.2854545454546 310.6968662720504 512.2854545454546 308.4877272727272 C 512.2854545454546 306.27858827340407 514.0763155461315 304.4877272727272 516.2854545454546 304.4877272727272 C 518.4945935447778 304.4877272727272 520.2854545454546 306.27858827340407 520.2854545454546 308.4877272727272 Z" stroke-opacity="1" stroke-linecap="round" stroke-linejoin="round" stroke-miterlimit="10"/><path fill="rgb(97,97,97)" stroke="none" paint-order="stroke fill markers" d=" M 560.0153920629907 308.58510457056434 C 560.0153920629907 310.7942435698875 558.2245310623139 312.58510457056434 556.0153920629907 312.58510457056434 C 553.8062530636676 312.58510457056434 552.0153920629907 310.7942435698875 552.0153920629907 308.58510457056434 C 552.0153920629907 306.3759655712412 553.8062530636676 304.58510457056434 556.0153920629907 304.58510457056434 C 558.2245310623139 304.58510457056434 560.0153920629907 306.3759655712412 560.0153920629907 308.58510457056434 Z" fill-opacity="1"/><path fill="none" stroke="rgb(0,0,0)" paint-order="fill stroke markers" d=" M 560.0153920629907 308.58510457056434 C 560.0153920629907 310.7942435698875 558.2245310623139 312.58510457056434 556.0153920629907 312.58510457056434 C 553.8062530636676 312.58510457056434 552.0153920629907 310.7942435698875 552.0153920629907 308.58510457056434 C 552.0153920629907 306.3759655712412 553.8062530636676 304.58510457056434 556.0153920629907 304.58510457056434 C 558.2245310623139 304.58510457056434 560.0153920629907 306.3759655712412 560.0153920629907 308.58510457056434 Z" stroke-opacity="1" stroke-linecap="round" stroke-linejoin="round" stroke-miterlimit="10"/><text fill="rgb(97,97,97)" stroke="none" font-family="geogebra-sans-serif, sans-serif" font-size="16px" font-style="normal" font-weight="normal" text-decoration="normal" x="560" y="301" text-anchor="start" dominant-baseline="alphabetic" fill-opacity="1">K</text><text fill="none" stroke="rgb(255,255,255)" font-family="geogebra-sans-serif, sans-serif" font-size="16px" font-style="normal" font-weight="normal" text-decoration="normal" x="560" y="301" text-anchor="start" dominant-baseline="alphabetic" stroke-opacity="1" stroke-linejoin="bevel" stroke-miterlimit="10" stroke-width="3">K</text><text fill="rgb(97,97,97)" stroke="none" font-family="geogebra-sans-serif, sans-serif" font-size="16px" font-style="normal" font-weight="normal" text-decoration="normal" x="560" y="301" text-anchor="start" dominant-baseline="alphabetic" fill-opacity="1">K</text></g></g></svg>